# xmcd
#
# Track frame offsets: 
#        150
#        8945
#        25238
#        37893
#        53391
#        67229
#        81326
#        91256
#        106454
#        115804
#        129364
#        138536
#        148652
#        177014
#        187690
#
# Disc length: 2654 seconds
#
# Revision: 0
# Processed by: cddbd v1.5.2PL0 Copyright (c) Steve Scherf et al.
# Submitted via: ExactAudioCopy v0.99pb3
#
DISCID=c10a5c0f
DTITLE=Ray Charles - Collection
DYEAR=1955
DGENRE=Blues
TTITLE0=Ray Charles - Alabamy Bound
TTITLE1=Ray Charles - Georgia on My Mind
TTITLE2=Ray Charles - Basin Street Blues
TTITLE3=Ray Charles - Mississippi Mud
TTITLE4=Ray Charles - Moonlight in Vermont
TTITLE5=Ray Charles - New York's My Home
TTITLE6=Ray Charles - California, Here I Come
TTITLE7=Ray Charles - Moon over Miami
TTITLE8=Ray Charles - Carry Me Back to Old Virginny
TTITLE9=Ray Charles - Blue Hawaii
TTITLE10=Ray Charles - Hit the Road Jack
TTITLE11=Ray Charles - Blue Moon of Kentucky (Swingov
TTITLE12=Ray Charles - Rainy Night in Georgia
TTITLE13=Ray Charles - Swanee River Rock (Talkin' 'Bo
TTITLE14=Ray Charles - Back Home
EXTD=
EXTT0=
EXTT1=
EXTT2=
EXTT3=
EXTT4=
EXTT5=
EXTT6=
EXTT7=
EXTT8=
EXTT9=
EXTT10=
EXTT11=
EXTT12=
EXTT13=
EXTT14=
PLAYORDER=
